0
SECTION
2
HEADER
9
$INSUNITS
70
4
0
ENDSEC
0
SECTION
2
TABLES
0
TABLE
2
LTYPE
0
LTYPE
72
65
70
64
2
CONTINUOUS
3
______
73
0
40
0
0
ENDTAB
0
TABLE
2
LAYER
0
ENDTAB
0
ENDSEC
0
SECTION
2
ENTITIES
0
LINE
8
0
10
-11.0769801
20
-7.6108811
11
8.1829425
21
-10.6613532
0
LINE
8
0
10
8.1829425
20
-10.6613532
11
10.8257658
21
6.0247768
0
LINE
8
0
10
-11.0769801
20
-7.6108811
11
-2.8641707
21
44.2427568
0
LINE
8
0
10
12.068131
20
13.8687619
11
16.3957519
21
41.1922847
0
LINE
8
0
10
16.3957519
20
41.1922847
11
-2.8641707
21
44.2427568
0
LINE
8
0
10
10.8257658
20
6.0247768
11
27.9594395
21
0.1251798
0
LINE
8
0
10
27.9594395
20
0.1251798
11
30.3247943
21
6.9946691
0
LINE
8
0
10
33.3779754
20
15.8617507
11
45.0517675
21
49.764905
0
LINE
8
0
10
12.068131
20
13.8687619
11
26.6141553
21
56.113484
0
LINE
8
0
10
45.0517675
20
49.764905
11
26.6141553
21
56.113484
0
LINE
8
0
10
30.3247943
20
6.9946691
11
45.373298
21
-0.6729265
0
LINE
8
0
10
52.1755395
20
9.8016069
11
70.3710108
21
45.5122301
0
LINE
8
0
10
33.3779754
20
15.8617507
11
52.9963836
21
54.3650448
0
LINE
8
0
10
70.3710108
20
45.5122301
11
52.9963836
21
54.3650448
0
LINE
8
0
10
43.7686197
20
-3.1439144
11
59.0199905
21
-13.0482703
0
LINE
8
0
10
60.3279778
20
-13.4482689
11
64.7521275
21
-6.6356758
0
LINE
8
0
10
52.1755395
20
9.8016069
11
72.362169
21
40.8862905
0
LINE
8
0
10
45.373298
20
-0.6729265
11
43.7686197
21
-3.1439144
0
LINE
8
0
10
84.0868132
20
23.1371294
11
88.7162451
21
30.2658294
0
LINE
8
0
10
88.7162451
20
30.2658294
11
72.362169
21
40.8862905
0
LINE
8
0
10
64.7521275
20
-6.6356758
11
79.8481977
21
-16.4391783
0
LINE
8
0
10
79.8481977
20
-16.4391783
11
99.1828834
21
13.3336269
0
LINE
8
0
10
99.1828834
20
13.3336269
11
84.0868132
21
23.1371294
0
LINE
8
0
10
52.7170662
20
-30.3654123
11
87.9555395
21
-43.1911677
0
LINE
8
0
10
60.3279778
20
-13.4482689
11
94.2829122
21
-25.8068543
0
LINE
8
0
10
59.0199905
20
-13.0482703
11
52.7170662
21
-30.3654123
0
LINE
8
0
10
87.9555395
20
-43.1911677
11
94.2829122
21
-25.8068543
0
LINE
8
0
10
194.1358293
20
-10.6613532
11
213.3957519
21
-7.6108811
0
LINE
8
0
10
205.1829425
20
44.2427568
11
213.3957519
21
-7.6108811
0
LINE
8
0
10
191.493006
20
6.0247768
11
194.1358293
21
-10.6613532
0
LINE
8
0
10
185.9230199
20
41.1922847
11
190.2506408
21
13.8687619
0
LINE
8
0
10
205.1829425
20
44.2427568
11
185.9230199
21
41.1922847
0
LINE
8
0
10
174.3593323
20
0.1251798
11
191.493006
21
6.0247768
0
LINE
8
0
10
175.7046165
20
56.113484
11
190.2506408
21
13.8687619
0
LINE
8
0
10
157.2670043
20
49.764905
11
168.9407964
21
15.8617507
0
LINE
8
0
10
171.9939775
20
6.9946691
11
174.3593323
21
0.1251798
0
LINE
8
0
10
175.7046165
20
56.113484
11
157.2670043
21
49.764905
0
LINE
8
0
10
156.9454738
20
-0.6729265
11
171.9939775
21
6.9946691
0
LINE
8
0
10
149.3223882
20
54.3650448
11
168.9407964
21
15.8617507
0
LINE
8
0
10
131.947761
20
45.5122301
11
150.1432323
21
9.8016069
0
LINE
8
0
10
149.3223882
20
54.3650448
11
131.947761
21
45.5122301
0
LINE
8
0
10
143.2987813
20
-13.0482703
11
158.5501521
21
-3.1439144
0
LINE
8
0
10
158.5501521
20
-3.1439144
11
156.9454738
21
-0.6729265
0
LINE
8
0
10
129.9566028
20
40.8862905
11
150.1432323
21
9.8016069
0
LINE
8
0
10
137.5666443
20
-6.6356758
11
141.990794
21
-13.4482689
0
LINE
8
0
10
129.9566028
20
40.8862905
11
113.6025267
21
30.2658294
0
LINE
8
0
10
113.6025267
20
30.2658294
11
118.2319586
21
23.1371294
0
LINE
8
0
10
122.4705741
20
-16.4391783
11
137.5666443
21
-6.6356758
0
LINE
8
0
10
103.1358884
20
13.3336269
11
122.4705741
21
-16.4391783
0
LINE
8
0
10
118.2319586
20
23.1371294
11
103.1358884
21
13.3336269
0
LINE
8
0
10
114.3632323
20
-43.1911677
11
149.6017056
21
-30.3654123
0
LINE
8
0
10
149.6017056
20
-30.3654123
11
143.2987813
21
-13.0482703
0
LINE
8
0
10
108.0358596
20
-25.8068543
11
141.990794
21
-13.4482689
0
LINE
8
0
10
108.0358596
20
-25.8068543
11
114.3632323
21
-43.1911677
0
LINE
8
0
10
-7.9516535
20
-5.7772144
11
5.7772144
21
-7.9516535
0
LINE
8
0
10
5.7772144
20
-7.9516535
11
7.9516535
21
5.7772144
0
LINE
8
0
10
7.9516535
20
5.7772144
11
-5.7772144
21
7.9516535
0
LINE
8
0
10
-5.7772144
20
7.9516535
11
-7.9516535
21
-5.7772144
0
LINE
8
0
10
-5.2922676
20
11.0134874
11
8.4366003
21
8.8390483
0
LINE
8
0
10
8.4366003
20
8.8390483
11
10.6110394
21
22.5679162
0
LINE
8
0
10
10.6110394
20
22.5679162
11
-3.1178285
21
24.7423553
0
LINE
8
0
10
-3.1178285
20
24.7423553
11
-5.2922676
21
11.0134874
0
LINE
8
0
10
-2.6328817
20
27.8041892
11
11.0959862
21
25.6297501
0
LINE
8
0
10
11.0959862
20
25.6297501
11
13.2704253
21
39.358618
0
LINE
8
0
10
13.2704253
20
39.358618
11
-0.4584426
21
41.5330571
0
LINE
8
0
10
-0.4584426
20
41.5330571
11
-2.6328817
21
27.8041892
0
LINE
8
0
10
12.918086
20
7.7368607
11
26.0607942
21
3.2114633
0
LINE
8
0
10
26.0607942
20
3.2114633
11
30.5861916
21
16.3541715
0
LINE
8
0
10
30.5861916
20
16.3541715
11
17.4434834
21
20.8795689
0
LINE
8
0
10
17.4434834
20
20.8795689
11
12.918086
21
7.7368607
0
LINE
8
0
10
18.4527446
20
23.8106765
11
31.5954528
21
19.2852791
0
LINE
8
0
10
31.5954528
20
19.2852791
11
36.1208502
21
32.4279873
0
LINE
8
0
10
36.1208502
20
32.4279873
11
22.978142
21
36.9533847
0
LINE
8
0
10
22.978142
20
36.9533847
11
18.4527446
21
23.8106765
0
LINE
8
0
10
23.9874032
20
39.8844923
11
37.1301114
21
35.3590949
0
LINE
8
0
10
37.1301114
20
35.3590949
11
41.6555088
21
48.5018031
0
LINE
8
0
10
41.6555088
20
48.5018031
11
28.5128006
21
53.0272005
0
LINE
8
0
10
28.5128006
20
53.0272005
11
23.9874032
21
39.8844923
0
LINE
8
0
10
32.7008788
20
8.3653439
11
45.0858695
21
2.054876
0
LINE
8
0
10
45.0858695
20
2.054876
11
51.3963374
21
14.4398667
0
LINE
8
0
10
51.3963374
20
14.4398667
11
39.0113467
21
20.7503346
0
LINE
8
0
10
39.0113467
20
20.7503346
11
32.7008788
21
8.3653439
0
LINE
8
0
10
40.4187173
20
23.5124548
11
52.803708
21
17.2019869
0
LINE
8
0
10
52.803708
20
17.2019869
11
59.1141759
21
29.5869776
0
LINE
8
0
10
59.1141759
20
29.5869776
11
46.7291852
21
35.8974455
0
LINE
8
0
10
46.7291852
20
35.8974455
11
40.4187173
21
23.5124548
0
LINE
8
0
10
48.1365558
20
38.6595657
11
60.5215465
21
32.3490978
0
LINE
8
0
10
60.5215465
20
32.3490978
11
66.8320144
21
44.7340885
0
LINE
8
0
10
66.8320144
20
44.7340885
11
54.4470237
21
51.0445564
0
LINE
8
0
10
54.4470237
20
51.0445564
11
48.1365558
21
38.6595657
0
LINE
8
0
10
47.3695671
20
-2.7399614
11
59.027088
21
-10.3104439
0
LINE
8
0
10
59.027088
20
-10.3104439
11
66.5975705
21
1.347077
0
LINE
8
0
10
66.5975705
20
1.347077
11
54.9400496
21
8.9175595
0
LINE
8
0
10
54.9400496
20
8.9175595
11
47.3695671
21
-2.7399614
0
LINE
8
0
10
56.6284307
20
11.5174383
11
68.2859516
21
3.9469558
0
LINE
8
0
10
68.2859516
20
3.9469558
11
75.8564341
21
15.6044767
0
LINE
8
0
10
75.8564341
20
15.6044767
11
64.1989132
21
23.1749592
0
LINE
8
0
10
64.1989132
20
23.1749592
11
56.6284307
21
11.5174383
0
LINE
8
0
10
65.8872943
20
25.774838
11
77.5448152
21
18.2043555
0
LINE
8
0
10
77.5448152
20
18.2043555
11
85.1152977
21
29.8618764
0
LINE
8
0
10
85.1152977
20
29.8618764
11
73.4577768
21
37.4323589
0
LINE
8
0
10
73.4577768
20
37.4323589
11
65.8872943
21
25.774838
0
LINE
8
0
10
67.095069
20
-5.4147642
11
78.7525899
21
-12.9852467
0
LINE
8
0
10
78.7525899
20
-12.9852467
11
86.3230724
21
-1.3277258
0
LINE
8
0
10
86.3230724
20
-1.3277258
11
74.6655515
21
6.2427567
0
LINE
8
0
10
74.6655515
20
6.2427567
11
67.095069
21
-5.4147642
0
LINE
8
0
10
76.3539326
20
8.8426355
11
88.0114535
21
1.272153
0
LINE
8
0
10
88.0114535
20
1.272153
11
95.581936
21
12.9296739
0
LINE
8
0
10
95.581936
20
12.9296739
11
83.9244151
21
20.5001564
0
LINE
8
0
10
83.9244151
20
20.5001564
11
76.3539326
21
8.8426355
0
LINE
8
0
10
56.1348519
20
-29.1617757
11
69.1965793
21
-33.9158557
0
LINE
8
0
10
69.1965793
20
-33.9158557
11
73.9506593
21
-20.8541283
0
LINE
8
0
10
73.9506593
20
-20.8541283
11
60.8889319
21
-16.1000483
0
LINE
8
0
10
60.8889319
20
-16.1000483
11
56.1348519
21
-29.1617757
0
LINE
8
0
10
73.0493191
20
-35.3181383
11
86.1110465
21
-40.0722183
0
LINE
8
0
10
86.1110465
20
-40.0722183
11
90.8651265
21
-27.0104909
0
LINE
8
0
10
90.8651265
20
-27.0104909
11
77.8033991
21
-22.2564109
0
LINE
8
0
10
77.8033991
20
-22.2564109
11
73.0493191
21
-35.3181383
0
LINE
8
0
10
196.5415574
20
-7.9516535
11
210.2704253
21
-5.7772144
0
LINE
8
0
10
210.2704253
20
-5.7772144
11
208.0959862
21
7.9516535
0
LINE
8
0
10
208.0959862
20
7.9516535
11
194.3671183
21
5.7772144
0
LINE
8
0
10
194.3671183
20
5.7772144
11
196.5415574
21
-7.9516535
0
LINE
8
0
10
193.8821715
20
8.8390483
11
207.6110394
21
11.0134874
0
LINE
8
0
10
207.6110394
20
11.0134874
11
205.4366003
21
24.7423553
0
LINE
8
0
10
205.4366003
20
24.7423553
11
191.7077324
21
22.5679162
0
LINE
8
0
10
191.7077324
20
22.5679162
11
193.8821715
21
8.8390483
0
LINE
8
0
10
191.2227856
20
25.6297501
11
204.9516535
21
27.8041892
0
LINE
8
0
10
204.9516535
20
27.8041892
11
202.7772144
21
41.5330571
0
LINE
8
0
10
202.7772144
20
41.5330571
11
189.0483465
21
39.358618
0
LINE
8
0
10
189.0483465
20
39.358618
11
191.2227856
21
25.6297501
0
LINE
8
0
10
176.2579776
20
3.2114633
11
189.4006858
21
7.7368607
0
LINE
8
0
10
189.4006858
20
7.7368607
11
184.8752884
21
20.8795689
0
LINE
8
0
10
184.8752884
20
20.8795689
11
171.7325802
21
16.3541715
0
LINE
8
0
10
171.7325802
20
16.3541715
11
176.2579776
21
3.2114633
0
LINE
8
0
10
170.723319
20
19.2852791
11
183.8660272
21
23.8106765
0
LINE
8
0
10
183.8660272
20
23.8106765
11
179.3406298
21
36.9533847
0
LINE
8
0
10
179.3406298
20
36.9533847
11
166.1979216
21
32.4279873
0
LINE
8
0
10
166.1979216
20
32.4279873
11
170.723319
21
19.2852791
0
LINE
8
0
10
165.1886604
20
35.3590949
11
178.3313686
21
39.8844923
0
LINE
8
0
10
178.3313686
20
39.8844923
11
173.8059712
21
53.0272005
0
LINE
8
0
10
173.8059712
20
53.0272005
11
160.663263
21
48.5018031
0
LINE
8
0
10
160.663263
20
48.5018031
11
165.1886604
21
35.3590949
0
LINE
8
0
10
157.2329023
20
2.054876
11
169.617893
21
8.3653439
0
LINE
8
0
10
169.617893
20
8.3653439
11
163.3074251
21
20.7503346
0
LINE
8
0
10
163.3074251
20
20.7503346
11
150.9224344
21
14.4398667
0
LINE
8
0
10
150.9224344
20
14.4398667
11
157.2329023
21
2.054876
0
LINE
8
0
10
149.5150638
20
17.2019869
11
161.9000545
21
23.5124548
0
LINE
8
0
10
161.9000545
20
23.5124548
11
155.5895866
21
35.8974455
0
LINE
8
0
10
155.5895866
20
35.8974455
11
143.2045959
21
29.5869776
0
LINE
8
0
10
143.2045959
20
29.5869776
11
149.5150638
21
17.2019869
0
LINE
8
0
10
141.7972253
20
32.3490978
11
154.182216
21
38.6595657
0
LINE
8
0
10
154.182216
20
38.6595657
11
147.8717481
21
51.0445564
0
LINE
8
0
10
147.8717481
20
51.0445564
11
135.4867574
21
44.7340885
0
LINE
8
0
10
135.4867574
20
44.7340885
11
141.7972253
21
32.3490978
0
LINE
8
0
10
143.2916838
20
-10.3104439
11
154.9492047
21
-2.7399614
0
LINE
8
0
10
154.9492047
20
-2.7399614
11
147.3787222
21
8.9175595
0
LINE
8
0
10
147.3787222
20
8.9175595
11
135.7212013
21
1.347077
0
LINE
8
0
10
135.7212013
20
1.347077
11
143.2916838
21
-10.3104439
0
LINE
8
0
10
134.0328202
20
3.9469558
11
145.6903411
21
11.5174383
0
LINE
8
0
10
145.6903411
20
11.5174383
11
138.1198586
21
23.1749592
0
LINE
8
0
10
138.1198586
20
23.1749592
11
126.4623377
21
15.6044767
0
LINE
8
0
10
126.4623377
20
15.6044767
11
134.0328202
21
3.9469558
0
LINE
8
0
10
124.7739566
20
18.2043555
11
136.4314775
21
25.774838
0
LINE
8
0
10
136.4314775
20
25.774838
11
128.860995
21
37.4323589
0
LINE
8
0
10
128.860995
20
37.4323589
11
117.2034741
21
29.8618764
0
LINE
8
0
10
117.2034741
20
29.8618764
11
124.7739566
21
18.2043555
0
LINE
8
0
10
123.5661819
20
-12.9852467
11
135.2237028
21
-5.4147642
0
LINE
8
0
10
135.2237028
20
-5.4147642
11
127.6532203
21
6.2427567
0
LINE
8
0
10
127.6532203
20
6.2427567
11
115.9956994
21
-1.3277258
0
LINE
8
0
10
115.9956994
20
-1.3277258
11
123.5661819
21
-12.9852467
0
LINE
8
0
10
114.3073183
20
1.272153
11
125.9648392
21
8.8426355
0
LINE
8
0
10
125.9648392
20
8.8426355
11
118.3943567
21
20.5001564
0
LINE
8
0
10
118.3943567
20
20.5001564
11
106.7368358
21
12.9296739
0
LINE
8
0
10
106.7368358
20
12.9296739
11
114.3073183
21
1.272153
0
LINE
8
0
10
133.1221925
20
-33.9158557
11
146.1839199
21
-29.1617757
0
LINE
8
0
10
146.1839199
20
-29.1617757
11
141.4298399
21
-16.1000483
0
LINE
8
0
10
141.4298399
20
-16.1000483
11
128.3681125
21
-20.8541283
0
LINE
8
0
10
128.3681125
20
-20.8541283
11
133.1221925
21
-33.9158557
0
LINE
8
0
10
116.2077253
20
-40.0722183
11
129.2694527
21
-35.3181383
0
LINE
8
0
10
129.2694527
20
-35.3181383
11
124.5153727
21
-22.2564109
0
LINE
8
0
10
124.5153727
20
-22.2564109
11
111.4536453
21
-27.0104909
0
LINE
8
0
10
111.4536453
20
-27.0104909
11
116.2077253
21
-40.0722183
0
CIRCLE
8
0
10
0
20
0
40
1
0
CIRCLE
8
0
10
2.6593859
20
16.7907018
40
1
0
CIRCLE
8
0
10
5.3187718
20
33.5814036
40
1
0
CIRCLE
8
0
10
21.7521388
20
12.0455161
40
1
0
CIRCLE
8
0
10
27.2867974
20
28.1193319
40
1
0
CIRCLE
8
0
10
32.821456
20
44.1931477
40
1
0
CIRCLE
8
0
10
42.0486081
20
11.4026053
40
1
0
CIRCLE
8
0
10
49.7664466
20
26.5497162
40
1
0
CIRCLE
8
0
10
57.4842851
20
41.6968271
40
1
0
CIRCLE
8
0
10
56.9835688
20
-0.6964422
40
1
0
CIRCLE
8
0
10
66.2424324
20
13.5609575
40
1
0
CIRCLE
8
0
10
75.501296
20
27.8183572
40
1
0
CIRCLE
8
0
10
76.7090707
20
-3.371245
40
1
0
CIRCLE
8
0
10
85.9679343
20
10.8861547
40
1
0
CIRCLE
8
0
10
65.0427556
20
-25.007952
40
1
0
CIRCLE
8
0
10
81.9572228
20
-31.1643146
40
1
0
CIRCLE
8
0
10
202.3187718
20
0
40
1
0
CIRCLE
8
0
10
199.6593859
20
16.7907018
40
1
0
CIRCLE
8
0
10
197
20
33.5814036
40
1
0
CIRCLE
8
0
10
180.566633
20
12.0455161
40
1
0
CIRCLE
8
0
10
175.0319744
20
28.1193319
40
1
0
CIRCLE
8
0
10
169.4973158
20
44.1931477
40
1
0
CIRCLE
8
0
10
160.2701637
20
11.4026053
40
1
0
CIRCLE
8
0
10
152.5523252
20
26.5497162
40
1
0
CIRCLE
8
0
10
144.8344867
20
41.6968271
40
1
0
CIRCLE
8
0
10
145.335203
20
-0.6964422
40
1
0
CIRCLE
8
0
10
136.0763394
20
13.5609575
40
1
0
CIRCLE
8
0
10
126.8174758
20
27.8183572
40
1
0
CIRCLE
8
0
10
125.6097011
20
-3.371245
40
1
0
CIRCLE
8
0
10
116.3508375
20
10.8861547
40
1
0
CIRCLE
8
0
10
137.2760162
20
-25.007952
40
1
0
CIRCLE
8
0
10
120.361549
20
-31.1643146
40
1
0
ENDSEC
0
EOF