0
SECTION
2
HEADER
9
$INSUNITS
70
4
9
$ACADVER
1
AC1014
9
$HANDSEED
5
FFFF
0
ENDSEC
0
SECTION
2
TABLES
0
TABLE
2
VPORT
5
8
100
AcDbSymbolTable
0
ENDTAB
0
TABLE
2
LTYPE
5
5
100
AcDbSymbolTable
0
LTYPE
5
14
100
AcDbSymbolTableRecord
100
AcDbLinetypeTableRecord
2
BYBLOCK
70
0
0
LTYPE
5
15
100
AcDbSymbolTableRecord
100
AcDbLinetypeTableRecord
2
BYLAYER
70
0
0
LTYPE
5
16
100
AcDbSymbolTableRecord
100
AcDbLinetypeTableRecord
2
DASHED
70
0
3
Dashed __ __ __ __ __ __ __ __ __ __ __ __ __ _
72
65
73
2
40
0.75
49
0.5
74
0
49
-0.25
74
0
0
ENDTAB
0
TABLE
2
LAYER
5
2
100
AcDbSymbolTable
70
2
0
LAYER
5
50
100
AcDbSymbolTableRecord
100
AcDbLayerTableRecord
2
0
70
0
62
7
6
CONTINUOUS
0
ENDTAB
0
TABLE
2
STYLE
5
3
100
AcDbSymbolTable
70
1
0
STYLE
5
11
100
AcDbSymbolTableRecord
100
AcDbTextStyleTableRecord
2
STANDARD
70
0
0
ENDTAB
0
TABLE
2
VIEW
5
6
100
AcDbSymbolTable
70
0
0
ENDTAB
0
TABLE
2
UCS
5
7
100
AcDbSymbolTable
70
0
0
ENDTAB
0
TABLE
2
APPID
5
9
100
AcDbSymbolTable
70
2
0
APPID
5
12
100
AcDbSymbolTableRecord
100
AcDbRegAppTableRecord
2
ACAD
70
0
0
ENDTAB
0
TABLE
2
DIMSTYLE
5
A
100
AcDbSymbolTable
70
1
0
ENDTAB
0
TABLE
2
BLOCK_RECORD
5
1
100
AcDbSymbolTable
70
1
0
BLOCK_RECORD
5
1F
100
AcDbSymbolTableRecord
100
AcDbBlockTableRecord
2
*MODEL_SPACE
0
BLOCK_RECORD
5
1B
100
AcDbSymbolTableRecord
100
AcDbBlockTableRecord
2
*PAPER_SPACE
0
ENDTAB
0
ENDSEC
0
SECTION
2
BLOCKS
0
BLOCK
5
20
100
AcDbEntity
100
AcDbBlockBegin
2
*MODEL_SPACE
0
ENDBLK
5
21
100
AcDbEntity
100
AcDbBlockEnd
0
BLOCK
5
1C
100
AcDbEntity
100
AcDbBlockBegin
2
*PAPER_SPACE
0
ENDBLK
5
1D
100
AcDbEntity
100
AcDbBlockEnd
0
ENDSEC
0
SECTION
2
ENTITIES
0
CIRCLE
5
100
100
AcDbEntity
8
0
100
AcDbCircle
10
-101.15938590000002
20
10.886154700000004
30
0
40
0.99999999999999645
210
0
220
0
230
1
0
CIRCLE
5
101
100
AcDbEntity
8
0
100
AcDbCircle
10
-59.110777799999994
20
-0.51645060000000242
30
0
40
0.99999999999999645
210
0
220
0
230
1
0
CIRCLE
5
102
100
AcDbEntity
8
0
100
AcDbCircle
10
44.175817100000003
20
11.582596899999995
30
0
40
0.99999999999999645
210
0
220
0
230
1
0
CIRCLE
5
103
100
AcDbEntity
8
0
100
AcDbCircle
10
95.840614099999982
20
-22.69524890000001
30
0
40
0.99999999999999645
210
0
220
0
230
1
0
CIRCLE
5
104
100
AcDbEntity
8
0
100
AcDbCircle
10
98.500000000000014
20
-5.9045471000000127
30
0
40
0.99999999999999645
210
0
220
0
230
1
0
CIRCLE
5
105
100
AcDbEntity
8
0
100
AcDbCircle
10
34.916953499999991
20
-2.674802800000009
30
0
40
1.0000000000000009
210
0
220
0
230
1
0
CIRCLE
5
106
100
AcDbEntity
8
0
100
AcDbCircle
10
59.110777799999994
20
-0.51645060000000242
30
0
40
0.99999999999999645
210
0
220
0
230
1
0
CIRCLE
5
107
100
AcDbEntity
8
0
100
AcDbCircle
10
-51.392939300000009
20
-15.663561500000007
30
0
40
0.99999999999999645
210
0
220
0
230
1
0
CIRCLE
5
108
100
AcDbEntity
8
0
100
AcDbCircle
10
19.202163099999989
20
42.05046930000001
30
0
40
1.0000000000000009
210
0
220
0
230
1
0
CIRCLE
5
109
100
AcDbEntity
8
0
100
AcDbCircle
10
-24.450315200000002
20
14.257399700000004
30
0
40
1.0000000000000009
210
0
220
0
230
1
0
CIRCLE
5
110
100
AcDbEntity
8
0
100
AcDbCircle
10
73.872588499999978
20
-17.233177200000007
30
0
40
0.99999999999999645
210
0
220
0
230
1
0
CIRCLE
5
111
100
AcDbEntity
8
0
100
AcDbCircle
10
-19.202163100000011
20
42.05046930000001
30
0
40
1.0000000000000009
210
0
220
0
230
1
0
CIRCLE
5
112
100
AcDbEntity
8
0
100
AcDbCircle
10
43.675100799999989
20
-30.810672400000012
30
0
40
0.99999999999999645
210
0
220
0
230
1
0
CIRCLE
5
113
100
AcDbEntity
8
0
100
AcDbCircle
10
-73.87258850000002
20
-17.233177199999989
30
0
40
0.99999999999999645
210
0
220
0
230
1
0
CIRCLE
5
114
100
AcDbEntity
8
0
100
AcDbCircle
10
-95.840614100000039
20
-22.695248899999996
30
0
40
0.99999999999999645
210
0
220
0
230
1
0
CIRCLE
5
115
100
AcDbEntity
8
0
100
AcDbCircle
10
68.337929899999992
20
-33.306993000000013
30
0
40
0.99999999999999645
210
0
220
0
230
1
0
CIRCLE
5
116
100
AcDbEntity
8
0
100
AcDbCircle
10
-68.337929900000034
20
-33.306993000000013
30
0
40
0.99999999999999645
210
0
220
0
230
1
0
CIRCLE
5
117
100
AcDbEntity
8
0
100
AcDbCircle
10
79.407247099999978
20
-1.1593614000000052
30
0
40
0.99999999999999645
210
0
220
0
230
1
0
CIRCLE
5
118
100
AcDbEntity
8
0
100
AcDbCircle
10
-98.500000000000057
20
-5.9045470999999949
30
0
40
0.99999999999999645
210
0
220
0
230
1
0
CIRCLE
5
119
100
AcDbEntity
8
0
100
AcDbCircle
10
-44.175817100000017
20
11.582596899999995
30
0
40
0.99999999999999645
210
0
220
0
230
1
0
CIRCLE
5
120
100
AcDbEntity
8
0
100
AcDbCircle
10
101.1593859
20
10.886154699999988
30
0
40
0.99999999999999645
210
0
220
0
230
1
0
CIRCLE
5
121
100
AcDbEntity
8
0
100
AcDbCircle
10
25.65808989999999
20
-16.932202500000013
30
0
40
1.0000000000000009
210
0
220
0
230
1
0
CIRCLE
5
122
100
AcDbEntity
8
0
100
AcDbCircle
10
-25.658089900000007
20
-16.932202500000013
30
0
40
1.0000000000000009
210
0
220
0
230
1
0
CIRCLE
5
123
100
AcDbEntity
8
0
100
AcDbCircle
10
15.19145159999999
20
0
30
0
40
1.0000000000000009
210
0
220
0
230
1
0
CIRCLE
5
124
100
AcDbEntity
8
0
100
AcDbCircle
10
36.11663029999999
20
35.894106699999988
30
0
40
1.0000000000000009
210
0
220
0
230
1
0
CIRCLE
5
125
100
AcDbEntity
8
0
100
AcDbCircle
10
-36.116630299999997
20
35.894106700000009
30
0
40
1.0000000000000009
210
0
220
0
230
1
0
CIRCLE
5
126
100
AcDbEntity
8
0
100
AcDbCircle
10
-15.191451600000006
20
0
30
0
40
1.0000000000000009
210
0
220
0
230
1
0
CIRCLE
5
127
100
AcDbEntity
8
0
100
AcDbCircle
10
-34.916953499999998
20
-2.6748027999999913
30
0
40
1.0000000000000009
210
0
220
0
230
1
0
CIRCLE
5
128
100
AcDbEntity
8
0
100
AcDbCircle
10
51.392939299999995
20
-15.663561500000007
30
0
40
0.99999999999999645
210
0
220
0
230
1
0
CIRCLE
5
129
100
AcDbEntity
8
0
100
AcDbCircle
10
-79.407247100000006
20
-1.1593614000000052
30
0
40
0.99999999999999645
210
0
220
0
230
1
0
CIRCLE
5
130
100
AcDbEntity
8
0
100
AcDbCircle
10
24.45031519999997
20
14.257399700000004
30
0
40
1.0000000000000009
210
0
220
0
230
1
0
CIRCLE
5
131
100
AcDbEntity
8
0
100
AcDbCircle
10
-43.675100800000017
20
-30.810672399999994
30
0
40
0.99999999999999645
210
0
220
0
230
1
0
CIRCLE
5
132
100
AcDbEntity
8
0
100
AcDbCircle
10
5.4701648676756013e-15
20
-29.040589490395021
30
0
40
2
210
0
220
0
230
1
0
CIRCLE
5
133
100
AcDbEntity
8
0
100
AcDbCircle
10
-12.922643884856894
20
-13.133069313665597
30
0
40
1.9999999999999996
210
0
220
0
230
1
0
CIRCLE
5
134
100
AcDbEntity
8
0
100
AcDbCircle
10
69.121605808038268
20
8.1312741660858645
30
0
40
2.0000000000000018
210
0
220
0
230
1
0
CIRCLE
5
135
100
AcDbEntity
8
0
100
AcDbCircle
10
-17.512500000000035
20
-38.040589490394979
30
0
40
0.60000000000000064
210
0
220
0
230
1
0
CIRCLE
5
136
100
AcDbEntity
8
0
100
AcDbCircle
10
22.387499999999967
20
-38.040589490395014
30
0
40
0.60000000000000064
210
0
220
0
230
1
0
CIRCLE
5
137
100
AcDbEntity
8
0
100
AcDbCircle
10
17.512499999999964
20
-38.040589490395014
30
0
40
0.60000000000000064
210
0
220
0
230
1
0
CIRCLE
5
138
100
AcDbEntity
8
0
100
AcDbCircle
10
-22.387500000000038
20
-38.040589490394957
30
0
40
0.60000000000000064
210
0
220
0
230
1
0
CIRCLE
5
139
100
AcDbEntity
8
0
100
AcDbCircle
10
12.922643884729171
20
-13.133069313862267
30
0
40
1.9999999999999996
210
0
220
0
230
1
0
CIRCLE
5
140
100
AcDbEntity
8
0
100
AcDbCircle
10
-69.121605808038282
20
8.1312741660858698
30
0
40
2.0000000000000018
210
0
220
0
230
1
0
CIRCLE
5
141
100
AcDbEntity
8
0
100
AcDbCircle
10
-18.9018939993773
20
29.12358064984457
30
0
40
1.9999999999999996
210
0
220
0
230
1
0
CIRCLE
5
142
100
AcDbEntity
8
0
100
AcDbCircle
10
81.962763149589364
20
-32.899911012430934
30
0
40
1.9999999999999929
210
0
220
0
230
1
0
CIRCLE
5
143
100
AcDbEntity
8
0
100
AcDbCircle
10
-12.525000000001416
20
-38.040589490394993
30
0
40
0.60000000000000064
210
0
220
0
230
1
0
CIRCLE
5
144
100
AcDbEntity
8
0
100
AcDbCircle
10
27.374999999998586
20
-38.040589490395014
30
0
40
0.60000000000000064
210
0
220
0
230
1
0
CIRCLE
5
145
100
AcDbEntity
8
0
100
AcDbCircle
10
12.525000000001347
20
-38.040589490395014
30
0
40
0.60000000000000064
210
0
220
0
230
1
0
CIRCLE
5
146
100
AcDbEntity
8
0
100
AcDbCircle
10
-27.374999999998657
20
-38.040589490394957
30
0
40
0.60000000000000064
210
0
220
0
230
1
0
CIRCLE
5
147
100
AcDbEntity
8
0
100
AcDbCircle
10
18.901893999377265
20
29.12358064984457
30
0
40
2.0000000000000018
210
0
220
0
230
1
0
CIRCLE
5
148
100
AcDbEntity
8
0
100
AcDbCircle
10
-81.962763149589378
20
-32.899911012430934
30
0
40
2.0000000000000018
210
0
220
0
230
1
0
LWPOLYLINE
5
149
100
AcDbEntity
8
0
100
AcDbPolyline
90
16
70
1
43
0.0
10
-15.934560989878745
20
29.565094874689322
42
-0.26366845458526184
10
-16.998537273111328
20
26.804694457600956
42
0.38196601125010321
10
-17.304864763202538
20
24.828292810967753
10
-3.9317937645657208
20
4.2355692494886066
42
0.25396764690039114
10
-2.6737879113415324
20
3.5525277999999987
10
2.6737879775239666
20
3.5525278000000005
42
0.25396764790488757
10
3.9317938338317897
20
4.235569254236986
10
17.304864737372654
20
24.828292839448505
42
0.38196600778749368
10
16.998537253835643
20
26.80469447342254
42
-0.26366845236267317
10
15.934560989878715
20
29.565094874689329
42
0.35639395869259954
10
14.963924699089324
20
31.195390918664962
10
8.3503151460799359
20
33.602547931553261
42
0.087488663342084286
10
7.8372849321200544
20
33.693009000000004
10
-7.8372849321201166
20
33.693008999999996
42
0.087488663342093292
10
-8.3503151460799945
20
33.602547931553246
10
-14.96392469908935
20
31.195390918664962
42
0.35639395869259971
0
LWPOLYLINE
5
150
100
AcDbEntity
8
0
100
AcDbPolyline
90
61
70
1
43
0.0
10
112.00171430346261
20
17.015503292394179
42
0.41421356170794521
10
110.75483349292708
20
18.731687499901884
10
94.457975918615517
20
21.31285619826993
42
0.41421356398987907
10
92.741791706447998
20
20.065975380089156
10
90.613267098686521
20
6.6269996024396782
42
-0.4663076596891555
10
88.643382353196344
20
5.4433734320107252
10
73.199946399999988
20
10.760974900000003
10
50.437456702928429
20
18.598728467054681
42
-0.061162620746985981
10
50.108850377950063
20
18.759000478117407
10
43.140058449687622
20
23.284586824136767
42
-0.34921563576245762
10
42.54747806680296
20
25.05562289995985
10
47.929289478433141
20
39.842028066276079
42
0.41421356327941028
10
47.032780764688567
20
41.764597217205264
10
14.613385325905428
20
53.564292186218232
42
0.41421356132489884
10
12.690816181173847
20
52.66778347593057
10
7.2357013262982592
20
37.679978779337844
42
-0.31529878777265014
10
5.8261623971844392
20
36.693009000000004
10
-5.8261623971844569
20
36.693009000000004
42
-0.31529878777264997
10
-7.2357013262982814
20
37.679978779337858
10
-12.690816181173856
20
52.667783475930541
42
0.41421356132490955
10
-14.613385325905446
20
53.564292186218211
10
-47.032780764688582
20
41.764597217205264
42
0.41421356327940867
10
-47.929289478433148
20
39.842028066276072
10
-42.547478066802995
20
25.05562289995985
42
-0.34921563576245779
10
-43.14005844968765
20
23.28458682413677
10
-50.108850377950098
20
18.7590004781174
42
-0.06116262074698104
10
-50.437456702928465
20
18.598728467054674
10
-73.199946400000016
20
10.760974900000003
10
-88.643382353196344
20
5.4433734320107181
42
-0.46630765968914495
10
-90.613267098686549
20
6.6269996024396693
10
-92.741791706448083
20
20.065975380089153
42
0.41421356398987069
10
-94.457975918615602
20
21.312856198269905
10
-110.75483349292713
20
18.731687499901895
42
0.41421356170793822
10
-112.00171430346271
20
17.015503292394179
10
-103.41874358662523
20
-37.175241187465303
42
0.36891947720378981
10
-101.93721107565494
20
-38.44058949039502
10
-77.952032117750406
20
-38.44058949039502
42
-0.32010252390381394
10
-76.533754253992015
20
-39.452237259753119
10
-75.03358283091643
20
-43.809051435444395
42
0.41421356253772795
10
-73.12695273571893
20
-44.738977068286388
10
-56.107618400000021
20
-38.878750300000007
10
-52.575730861198949
20
-37.662623904098723
42
-0.37388467890580485
10
-50.750868846619063
20
-38.399916020134356
10
-48.843988048104869
20
-42.142380314400341
42
0.41421356212091259
10
-46.82649251381406
20
-42.797904353045908
10
-40.754519730321263
20
-39.704079703058312
42
-0.11835779924835395
10
-40.073533982780845
20
-39.540589490395014
10
40.073533982780781
20
-39.540589490395014
42
-0.11835779924834557
10
40.754519730321228
20
-39.704079703058312
10
46.826492513814003
20
-42.797904353045901
42
0.41421356212091259
10
48.843988048104812
20
-42.142380314400334
10
50.750868846619007
20
-38.399916020134341
42
-0.37388467890579807
10
52.575730861198906
20
-37.662623904098702
10
56.107618399999993
20
-38.878750300000007
10
73.126952735718874
20
-44.73897706828641
42
0.41421356253772795
10
75.033582830916387
20
-43.809051435444395
10
76.533754253991958
20
-39.452237259753133
42
-0.32010252390381194
10
77.952032117750377
20
-38.440589490395027
10
101.93721106676537
20
-38.44058949039502
42
0.36891947655875529
10
103.41874357720285
20
-37.175241190829809
10
104.02355660000001
20
-33.356602100000003
0
LINE
5
151
100
AcDbEntity
8
0
100
AcDbLine
10
-36.116630299999997
20
35.894106700000009
30
0
11
-19.202163100000011
21
42.05046930000001
31
0
6
DASHED
0
LINE
5
152
100
AcDbEntity
8
0
100
AcDbLine
10
19.202163099999989
20
42.05046930000001
30
0
11
36.11663029999999
21
35.894106699999988
31
0
6
DASHED
0
CIRCLE
5
153
100
AcDbEntity
8
0
100
AcDbCircle
10
27.659396699999988
20
38.972287999999999
30
0
40
1.6892044123442551
210
0
220
0
230
1
0
CIRCLE
5
154
100
AcDbEntity
8
0
100
AcDbCircle
10
-27.659396700000009
20
38.972288000000013
30
0
40
1.4249617892867628
210
0
220
0
230
1
0
ENDSEC
0
SECTION
2
OBJECTS
0
DICTIONARY
5
C
100
AcDbDictionary
3
ACAD_GROUP
350
D
3
ACAD_MLINESTYLE
350
17
0
DICTIONARY
5
D
100
AcDbDictionary
0
DICTIONARY
5
1A
330
C
100
AcDbDictionary
0
DICTIONARY
5
17
100
AcDbDictionary
0
ENDSEC
0
EOF
