<svg width="22" height="22" viewBox="0 0 22 22" fill="none" xmlns="http://www.w3.org/2000/svg">
<path d="M20.3332 7.79038L18.8746 6.81455L18.6097 6.94888C18.5375 6.98551 18.4902 7.04146 18.4678 7.11672C18.4414 7.19066 18.4472 7.26509 18.4852 7.34001L18.648 7.66108C18.6833 7.73065 18.7399 7.7793 18.8179 7.80703C18.8945 7.83209 18.9676 7.82697 19.0371 7.7917L19.2418 7.6879L19.5064 8.20964L19.3017 8.31344C19.1599 8.38536 19.0125 8.41638 18.8595 8.40652C18.7025 8.39533 18.5593 8.34852 18.43 8.26607C18.2967 8.1823 18.1941 8.06951 18.1222 7.9277L17.9594 7.60663C17.8861 7.46214 17.8544 7.3134 17.8643 7.16039C17.8728 7.00471 17.9196 6.86156 18.0047 6.73094C18.0899 6.60031 18.2033 6.49904 18.3451 6.42713L18.9231 6.13405L20.3816 7.10988L20.5382 7.0305L19.8462 5.66594L20.3719 5.39931L21.3285 7.28563L20.3332 7.79038ZM19.3545 4.03161C19.4644 4.15468 19.5372 4.29478 19.573 4.4519C19.6045 4.60879 19.5979 4.76351 19.5531 4.91609C19.5064 5.06643 19.4237 5.19455 19.3051 5.30046L18.268 6.22665C18.1494 6.33255 18.0139 6.39926 17.8615 6.42677C17.7048 6.45404 17.5515 6.44218 17.4014 6.3912C17.247 6.33999 17.1149 6.25285 17.005 6.12978L16.7532 5.84784C16.6413 5.72253 16.5685 5.58243 16.5348 5.42755C16.499 5.27042 16.5045 5.11669 16.5513 4.96635C16.598 4.81602 16.6807 4.6879 16.7993 4.58199L17.8364 3.6558C17.955 3.54989 18.0926 3.4833 18.2493 3.45604C18.4039 3.42653 18.5584 3.43739 18.7127 3.4886C18.8628 3.53958 18.9928 3.6266 19.1027 3.74967L19.3545 4.03161ZM18.9095 4.85741C18.9677 4.80545 18.997 4.737 18.9976 4.65204C18.9981 4.56708 18.9694 4.49216 18.9115 4.42727L18.6597 4.14532L18.6417 4.12519L18.2449 5.45089L18.9095 4.85741ZM17.9636 4.33864L17.1949 5.02504C17.1345 5.07899 17.1051 5.14745 17.1068 5.23041C17.1043 5.31313 17.133 5.38805 17.1929 5.45518L17.4447 5.73712C17.4687 5.76397 17.495 5.78671 17.5237 5.80533L17.9636 4.33864ZM17.3665 3.50275L15.6159 3.38044L15.4528 3.62861C15.4083 3.69629 15.395 3.76835 15.413 3.84479C15.4268 3.92208 15.4688 3.9838 15.539 4.02994L15.8398 4.22771C15.9049 4.27056 15.9783 4.28465 16.0597 4.26998C16.1387 4.25367 16.1995 4.21292 16.2424 4.14774L16.3685 3.95598L16.8573 4.27735L16.7312 4.46912C16.6439 4.60197 16.5314 4.70213 16.3937 4.76958C16.2518 4.83788 16.1043 4.86837 15.9512 4.86103C15.7939 4.85455 15.6488 4.80764 15.5159 4.72029L15.2151 4.52253C15.0798 4.43353 14.9783 4.32019 14.9109 4.1825C14.8409 4.04316 14.8105 3.89566 14.8194 3.74001C14.8284 3.58435 14.8766 3.4401 14.9639 3.30724L15.3199 2.76577L17.0705 2.88809L17.167 2.74144L15.8885 1.90094L16.2123 1.40836L17.9796 2.57023L17.3665 3.50275ZM13.64 1.83663C13.6158 1.91079 13.622 1.9838 13.6585 2.05566C13.6951 2.12751 13.7504 2.17552 13.8246 2.19968L13.9572 2.2429L14.5523 2.07237L15.1128 2.255L14.5399 4.01351L12.8156 3.45169L12.9982 2.8912L14.162 3.27038L14.3307 2.75267L13.9457 2.85916L13.642 2.76018C13.4908 2.71093 13.365 2.62734 13.2646 2.50944C13.1604 2.39345 13.0921 2.2592 13.0598 2.10667C13.0237 1.95607 13.0302 1.80519 13.0795 1.65401L13.2287 1.1962C13.2779 1.04502 13.3605 0.917332 13.4765 0.813138C13.5925 0.708944 13.7268 0.640676 13.8793 0.608336C14.0318 0.575996 14.1836 0.584454 14.3348 0.633712L14.6771 0.745238C14.8283 0.794495 14.956 0.877117 15.0602 0.993102C15.1634 1.11194 15.2331 1.24666 15.2693 1.39726C15.3016 1.54978 15.2931 1.70163 15.2439 1.85281L15.2299 1.89559L14.6694 1.71297L14.6834 1.67018C14.7075 1.59602 14.7014 1.52301 14.6648 1.45116C14.6283 1.3793 14.5715 1.33083 14.4945 1.30574L14.1522 1.19421C14.0752 1.16912 14.0026 1.17388 13.9346 1.20849C13.8627 1.24503 13.8142 1.30181 13.7891 1.37882L13.64 1.83663ZM11.6435 1.56133L9.88955 1.6231L9.86896 1.03846L11.6229 0.976693L11.6435 1.56133ZM7.03521 0.849835C7.18689 0.784885 7.34289 0.760511 7.50321 0.776712C7.66195 0.796851 7.80651 0.852439 7.93686 0.943475C8.06447 1.03569 8.15956 1.15488 8.22215 1.30105L8.76949 2.57929C8.83208 2.72545 8.85212 2.87515 8.82962 3.02838C8.80554 3.18554 8.74543 3.32714 8.64927 3.45316C8.55154 3.58312 8.42683 3.68058 8.27515 3.74553L7.92767 3.89432C7.77323 3.96045 7.61723 3.98483 7.45967 3.96744C7.29935 3.95124 7.15539 3.89704 7.02779 3.80482C6.90019 3.7126 6.80509 3.59341 6.74251 3.44725L6.19516 2.16901C6.13257 2.02284 6.11332 1.87118 6.1374 1.71401C6.15872 1.55803 6.21824 1.41505 6.31598 1.28509C6.41213 1.15906 6.53605 1.06358 6.68773 0.998628L7.03521 0.849835ZM7.6761 1.53486C7.6454 1.46316 7.58987 1.41351 7.50952 1.38591C7.42917 1.35831 7.34901 1.36163 7.26903 1.39588L6.92155 1.54467L6.89673 1.5553L8.02683 2.35393L7.6761 1.53486ZM6.88291 2.26612L7.28855 3.21343C7.32044 3.28789 7.37596 3.33754 7.45513 3.36238C7.53273 3.39116 7.61289 3.38784 7.69562 3.35241L8.04311 3.20362C8.0762 3.18945 8.10614 3.17173 8.13294 3.15047L6.88291 2.26612ZM7.16843 4.1555L6.70524 4.52015L5.88408 3.47711L5.4704 3.80279L6.12455 4.63369L5.6649 4.99556L5.01075 4.16466L4.68193 4.42354L4.32005 3.96389L4.64888 3.70502L3.88338 2.73269L4.34303 2.37082L5.10853 3.34315L5.98539 2.65281L7.16843 4.1555ZM4.79954 6.35199C4.70454 6.47949 4.58423 6.57317 4.43862 6.63302C4.29541 6.69467 4.14638 6.71644 3.99152 6.69833C3.83728 6.68441 3.6964 6.62995 3.56891 6.53495L2.45029 5.70145C2.32279 5.60645 2.22821 5.48735 2.16656 5.34414C2.10492 5.20094 2.08315 5.0519 2.10126 4.89705C2.11938 4.74219 2.17683 4.59981 2.27362 4.4699L2.48872 4.18123C2.58372 4.05373 2.70282 3.95915 2.84603 3.8975C2.98924 3.83586 3.13827 3.81409 3.29313 3.8322C3.44799 3.85032 3.58916 3.90687 3.71666 4.00187L3.79966 4.06371L3.44744 4.53642L3.36444 4.47458C3.29949 4.42619 3.22803 4.40661 3.15006 4.41585C3.0727 4.4293 3.00982 4.46849 2.96143 4.53345L2.74633 4.82212C2.69614 4.88948 2.67657 4.96094 2.6876 5.03651C2.69925 5.11627 2.73755 5.18035 2.80251 5.22875L3.14531 5.48417L3.16746 5.0854L3.35836 4.8292C3.45336 4.7017 3.57246 4.60713 3.71567 4.54548C3.85708 4.48624 4.00612 4.46447 4.16277 4.48018C4.31762 4.49829 4.4588 4.55485 4.5863 4.64985L4.83528 4.83537C4.96278 4.93037 5.05735 5.04948 5.119 5.19268C5.18065 5.33589 5.20242 5.48492 5.18431 5.63978C5.16619 5.79464 5.10963 5.93582 5.01463 6.06331L4.79954 6.35199ZM4.23408 5.12256C4.16913 5.07416 4.09677 5.05579 4.01701 5.06744C3.93724 5.07909 3.87406 5.11619 3.82745 5.17873L3.7441 5.2906L3.71544 5.90899L3.92113 6.06224C3.98367 6.10885 4.05483 6.12632 4.13459 6.11467C4.21435 6.10302 4.27843 6.06472 4.32683 5.99977L4.54193 5.7111C4.59032 5.64614 4.6087 5.57379 4.59705 5.49402C4.58601 5.41846 4.54801 5.35647 4.48306 5.30808L4.23408 5.12256ZM4.23032 7.0345L3.82484 8.0694C3.76574 8.22023 3.67526 8.34427 3.55338 8.44151C3.43151 8.53875 3.2935 8.59906 3.13935 8.62244C2.98519 8.64581 2.8341 8.6285 2.68605 8.57049L2.61483 8.54259C2.43047 8.47036 2.28616 8.34937 2.1819 8.17964C2.07304 8.22721 1.95958 8.25364 1.84151 8.25893C1.72345 8.26422 1.60715 8.24443 1.49263 8.19956L1.35436 8.14539C1.20632 8.08739 1.08368 7.99745 0.986435 7.87557C0.889193 7.7537 0.828885 7.61569 0.805509 7.46154C0.782133 7.30739 0.799994 7.15489 0.859093 7.00406L1.29741 5.88536L4.23032 7.0345ZM1.40797 7.21911C1.37732 7.29732 1.37729 7.37141 1.40787 7.44139C1.44015 7.51526 1.494 7.56697 1.56941 7.59652L1.70768 7.65069C1.7831 7.68024 1.85634 7.67833 1.92741 7.64495C2.00019 7.61547 2.05189 7.56162 2.08254 7.48341L2.30744 6.9094L1.63287 6.6451L1.40797 7.21911ZM2.66424 7.61467C2.6336 7.69288 2.63357 7.76697 2.66415 7.83695C2.69642 7.91082 2.75167 7.96307 2.82988 7.99371L2.90111 8.02162C2.97653 8.05117 3.04977 8.04926 3.12084 8.01589C3.19361 7.9864 3.24532 7.93255 3.27597 7.85434L3.46804 7.36413L2.85631 7.12445L2.66424 7.61467ZM1.59959 9.74017L1.55928 11.4947L0.974436 11.4813L1.01474 9.72673L1.59959 9.74017ZM2.30189 12.6656L3.24916 12.3344L3.44223 12.8866L2.59266 13.1836L1.52947 14.0559L2.90454 14.0757L3.75411 13.7786L3.94718 14.3309L2.99991 14.662L0.715266 14.6313L0.534077 14.1131L2.30189 12.6656ZM1.71061 15.6531L2.13331 16.2907L3.7761 15.2016L3.3534 14.564L3.84474 14.2383L5.01587 16.0048L4.52453 16.3306L4.10183 15.6929L2.45904 16.782L2.88174 17.4196L2.3904 17.7454L1.21927 15.9788L1.71061 15.6531ZM3.4518 18.8774C3.32922 18.7669 3.24378 18.6354 3.19549 18.4829C3.14719 18.3303 3.13914 18.1757 3.17135 18.0189C3.20355 17.8622 3.27488 17.7225 3.38533 17.6L3.48474 17.4896L3.91933 17.8812L3.81992 17.9916C3.76169 18.0562 3.73488 18.133 3.73951 18.222C3.74615 18.3087 3.78178 18.3812 3.84642 18.4394L4.0704 18.6413C4.14172 18.7055 4.21673 18.7388 4.29545 18.7411C4.37416 18.7434 4.43962 18.7155 4.49184 18.6576C4.56212 18.5796 4.5856 18.4796 4.56226 18.3576C4.54114 18.2376 4.48694 18.0737 4.39966 17.8658C4.32173 17.6744 4.26329 17.5107 4.22435 17.3747C4.18964 17.2384 4.17924 17.0998 4.19315 16.9589C4.20907 16.8157 4.27025 16.6851 4.37668 16.567C4.48111 16.4511 4.60347 16.3736 4.74375 16.3344C4.88604 16.293 5.03043 16.2919 5.17691 16.331C5.32561 16.3721 5.4646 16.4509 5.59386 16.5674L5.75099 16.709C5.87356 16.8194 5.959 16.9509 6.0073 17.1035C6.05783 17.258 6.06699 17.4137 6.03478 17.5704C6.00258 17.7272 5.93125 17.8668 5.8208 17.9894L5.75152 18.0663L5.31692 17.6747L5.38621 17.5978C5.44444 17.5332 5.47024 17.4575 5.46361 17.3707C5.45898 17.2818 5.42323 17.2071 5.35637 17.1469L5.19925 17.0053C5.12124 16.935 5.04913 16.8963 4.98291 16.8891C4.91668 16.8819 4.85947 16.9051 4.81128 16.9586C4.77111 17.0032 4.76081 17.0706 4.78038 17.1609C4.80196 17.249 4.84693 17.3784 4.91528 17.549C4.99877 17.7656 5.06043 17.9504 5.10026 18.1034C5.14231 18.2584 5.15392 18.4203 5.13509 18.5891C5.11848 18.7599 5.04893 18.9132 4.92643 19.0492C4.81999 19.1673 4.69251 19.2483 4.54397 19.2921C4.39766 19.338 4.24703 19.3416 4.09208 19.3029C3.93935 19.2662 3.80059 19.1917 3.67578 19.0792L3.4518 18.8774ZM5.744 20.5467C5.59664 20.4725 5.47754 20.3689 5.3867 20.2358C5.29988 20.1013 5.24933 19.955 5.23504 19.7966C5.22342 19.6396 5.25338 19.4901 5.3249 19.3481L5.9504 18.1062C6.02192 17.9642 6.12354 17.8525 6.25526 17.771C6.39101 17.6882 6.53805 17.6431 6.69639 17.6355C6.85875 17.6266 7.01362 17.6592 7.16098 17.7334L7.49858 17.9035C7.64862 17.979 7.76772 18.0827 7.85589 18.2144C7.94673 18.3475 7.99796 18.4926 8.00957 18.6496C8.02119 18.8066 7.99123 18.9561 7.91971 19.0981L7.29421 20.34C7.22269 20.482 7.11905 20.5944 6.9833 20.6772C6.85023 20.7613 6.70252 20.8078 6.54015 20.8167C6.38181 20.8243 6.22896 20.791 6.0816 20.7168L5.744 20.5467ZM5.85541 19.6153C5.82032 19.685 5.81809 19.7594 5.84872 19.8387C5.87934 19.9179 5.93351 19.9771 6.01121 20.0162L6.3488 20.1863C6.4265 20.2254 6.50631 20.2337 6.58821 20.2111C6.67012 20.1885 6.72862 20.1424 6.7637 20.0728L7.3892 18.8309C7.42564 18.7586 7.42787 18.6841 7.39589 18.6075C7.36794 18.5296 7.31378 18.4704 7.2334 18.43L6.89581 18.2599C6.81543 18.2194 6.73428 18.2105 6.65238 18.233C6.57315 18.257 6.51599 18.3038 6.4809 18.3734L5.85541 19.6153ZM8.82912 20.5337L8.45848 20.4595L8.23838 21.5582L7.66477 21.4432L8.28355 18.3546L9.49694 18.5977C9.65578 18.6295 9.79226 18.6966 9.90636 18.799C10.0234 18.902 10.1069 19.0274 10.1569 19.1751C10.2068 19.3228 10.2162 19.4746 10.185 19.6305L10.1319 19.8952C10.096 20.0746 10.015 20.2267 9.88909 20.3514C9.76314 20.4761 9.61426 20.5549 9.44245 20.5878L9.73857 21.8587L9.10761 21.7323L8.82912 20.5337ZM9.21407 20.0096C9.29643 20.0261 9.36939 20.0132 9.43295 19.9709C9.50003 19.9262 9.54183 19.8627 9.55833 19.7803L9.61137 19.5156C9.62728 19.4361 9.61259 19.3644 9.56731 19.3002C9.52556 19.2337 9.4635 19.1922 9.38114 19.1757L8.74135 19.0475L8.57428 19.8815L9.21407 20.0096ZM10.3073 18.8038L11.4169 18.7378C11.5786 18.7282 11.7291 18.7583 11.8685 18.8281C12.0079 18.8979 12.1206 18.9979 12.2065 19.128C12.2923 19.2582 12.34 19.4026 12.3495 19.5613L12.354 19.6377C12.3658 19.8353 12.3165 20.0171 12.2061 20.1829C12.295 20.2618 12.3666 20.3537 12.4209 20.4587C12.4752 20.5636 12.5061 20.6775 12.5134 20.8003L12.5222 20.9485C12.5317 21.1072 12.5015 21.2563 12.4316 21.3957C12.3618 21.5351 12.2618 21.6477 12.1317 21.7336C12.0016 21.8195 11.8556 21.8672 11.6939 21.8769L10.4945 21.9483L10.3073 18.8038ZM11.6589 21.2884C11.7427 21.2834 11.81 21.2524 11.8607 21.1952C11.9142 21.135 11.9386 21.0644 11.9337 20.9835L11.9249 20.8353C11.9201 20.7544 11.8876 20.6888 11.8275 20.6382C11.7702 20.5845 11.6997 20.5602 11.6158 20.5652L11.0004 20.6018L11.0435 21.3251L11.6589 21.2884ZM11.4909 19.9821C11.5748 19.9771 11.6421 19.946 11.6928 19.8889C11.7463 19.8286 11.7705 19.7566 11.7655 19.6727L11.761 19.5963C11.7562 19.5155 11.7237 19.4498 11.6636 19.3993C11.6063 19.3456 11.5357 19.3213 11.4519 19.3262L10.9263 19.3575L10.9654 20.0134L11.4909 19.9821ZM12.3449 18.7282L14.1809 18.1173L14.367 18.6767L13.0861 19.1028L13.2807 19.6878L14.3994 19.3156L14.5841 19.8707L13.4654 20.2429L13.7083 20.9731L14.9892 20.5469L15.1753 21.1062L13.3393 21.7171L12.3449 18.7282ZM15.2772 20.0157L14.8023 17.7712L15.2647 17.4752L17.1003 18.8489L17.6413 19.6941L17.1485 20.0095L16.8138 19.4864L15.9761 20.0225L16.3109 20.5456L15.8182 20.8609L15.2772 20.0157ZM16.422 19.0747L15.5478 18.4267L15.7663 19.4943L16.422 19.0747ZM18.0597 17.7719L17.8049 18.0512L18.6328 18.8063L18.2386 19.2385L15.9113 17.1157L16.7452 16.2014C16.8544 16.0817 16.9823 15.9994 17.1289 15.9544C17.2775 15.9072 17.4279 15.9003 17.5802 15.9337C17.7325 15.967 17.8674 16.0373 17.9849 16.1444L18.1844 16.3264C18.3196 16.4497 18.4081 16.5975 18.45 16.7697C18.4919 16.9419 18.4827 17.1101 18.4222 17.2742L19.6639 17.6759L19.2302 18.1513L18.0597 17.7719ZM17.8091 17.1718C17.8657 17.1098 17.8923 17.0406 17.8888 16.9643C17.8851 16.8838 17.8522 16.8152 17.7901 16.7586L17.5907 16.5766C17.5308 16.5221 17.4617 16.4976 17.3834 16.5033C17.3049 16.5048 17.2374 16.5366 17.1808 16.5987L16.741 17.0807L17.3694 17.6539L17.8091 17.1718ZM17.3404 15.613L18.2371 13.8983L18.7595 14.1714L18.1339 15.3677L18.6802 15.6534L19.2266 14.6086L19.745 14.8797L19.1986 15.9245L19.8805 16.2811L20.5061 15.0848L21.0285 15.3579L20.1318 17.0726L17.3404 15.613ZM20.4741 13.4288L20.3882 13.7969L21.4794 14.0514L21.3465 14.6211L18.2789 13.9056L18.56 12.7004C18.5968 12.5427 18.6681 12.4084 18.7741 12.2975C18.8807 12.1838 19.0086 12.1043 19.1578 12.059C19.307 12.0137 19.459 12.0091 19.6138 12.0452L19.8768 12.1065C20.055 12.1481 20.2044 12.2338 20.3251 12.3636C20.4458 12.4934 20.5199 12.6447 20.5473 12.8174L21.8269 12.5614L21.6808 13.1881L20.4741 13.4288ZM19.9623 13.0275C19.9814 12.9457 19.9708 12.8724 19.9305 12.8075C19.8879 12.7391 19.8257 12.6953 19.7439 12.6762L19.481 12.6149C19.4021 12.5965 19.3299 12.6089 19.2643 12.6522C19.1966 12.6918 19.1531 12.7525 19.134 12.8343L18.9858 13.4698L19.8141 13.663L19.9623 13.0275ZM20.4809 10.8227L20.2741 9.07994L20.855 9.01101L21.0618 10.7538L20.4809 10.8227Z" fill="white"/>
</svg>
