0
SECTION
2
HEADER
9
$INSUNITS
70
4
9
$ACADVER
1
AC1014
9
$HANDSEED
5
FFFF
0
ENDSEC
0
SECTION
2
TABLES
0
TABLE
2
VPORT
5
8
100
AcDbSymbolTable
0
ENDTAB
0
TABLE
2
LTYPE
5
5
100
AcDbSymbolTable
0
LTYPE
5
14
100
AcDbSymbolTableRecord
100
AcDbLinetypeTableRecord
2
BYBLOCK
70
0
0
LTYPE
5
15
100
AcDbSymbolTableRecord
100
AcDbLinetypeTableRecord
2
BYLAYER
70
0
0
LTYPE
5
16
100
AcDbSymbolTableRecord
100
AcDbLinetypeTableRecord
2
DASHED
70
0
3
Dashed __ __ __ __ __ __ __ __ __ __ __ __ __ _
72
65
73
2
40
0.75
49
0.5
74
0
49
-0.25
74
0
0
ENDTAB
0
TABLE
2
LAYER
5
2
100
AcDbSymbolTable
70
2
0
LAYER
5
50
100
AcDbSymbolTableRecord
100
AcDbLayerTableRecord
2
0
70
0
62
7
6
CONTINUOUS
0
ENDTAB
0
TABLE
2
STYLE
5
3
100
AcDbSymbolTable
70
1
0
STYLE
5
11
100
AcDbSymbolTableRecord
100
AcDbTextStyleTableRecord
2
STANDARD
70
0
0
ENDTAB
0
TABLE
2
VIEW
5
6
100
AcDbSymbolTable
70
0
0
ENDTAB
0
TABLE
2
UCS
5
7
100
AcDbSymbolTable
70
0
0
ENDTAB
0
TABLE
2
APPID
5
9
100
AcDbSymbolTable
70
2
0
APPID
5
12
100
AcDbSymbolTableRecord
100
AcDbRegAppTableRecord
2
ACAD
70
0
0
ENDTAB
0
TABLE
2
DIMSTYLE
5
A
100
AcDbSymbolTable
70
1
0
ENDTAB
0
TABLE
2
BLOCK_RECORD
5
1
100
AcDbSymbolTable
70
1
0
BLOCK_RECORD
5
1F
100
AcDbSymbolTableRecord
100
AcDbBlockTableRecord
2
*MODEL_SPACE
0
BLOCK_RECORD
5
1B
100
AcDbSymbolTableRecord
100
AcDbBlockTableRecord
2
*PAPER_SPACE
0
ENDTAB
0
ENDSEC
0
SECTION
2
BLOCKS
0
BLOCK
5
20
100
AcDbEntity
100
AcDbBlockBegin
2
*MODEL_SPACE
0
ENDBLK
5
21
100
AcDbEntity
100
AcDbBlockEnd
0
BLOCK
5
1C
100
AcDbEntity
100
AcDbBlockBegin
2
*PAPER_SPACE
0
ENDBLK
5
1D
100
AcDbEntity
100
AcDbBlockEnd
0
ENDSEC
0
SECTION
2
ENTITIES
0
LWPOLYLINE
5
100
100
AcDbEntity
8
0
100
AcDbPolyline
90
27
70
1
43
0.0
10
-11.0769801
20
-7.6108811000000012
10
8.1829425000000011
20
-10.661353199999999
10
10.825765800000003
20
6.0247767999999997
10
27.959439500000002
20
0.1251798000000004
10
30.324794300000004
20
6.9946690999999994
10
45.373298000000005
20
-0.67292649999999954
10
43.768619700000002
20
-3.1439144000000003
10
59.512592799999993
20
-13.368170000000001
10
53.714720999999997
20
-28.472142300000005
10
88.723986999999994
20
-41.910940500000002
10
95.353794100000016
20
-24.6397026
10
61.499513700000001
20
-11.644261800000002
10
64.7521275
20
-6.6356758000000005
10
79.848197700000014
20
-16.439178299999998
10
99.182883400000023
20
13.333626899999999
10
84.086813199999995
20
23.137129399999999
10
88.716245100000009
20
30.265829400000005
10
72.362168999999994
20
40.886290500000008
10
52.175539499999999
20
9.8016068999999995
10
70.371010800000008
20
45.512230100000004
10
52.996383600000001
20
54.3650448
10
33.377975399999997
20
15.861750699999998
10
45.051767499999997
20
49.764905000000006
10
26.6141553
20
56.113484000000007
10
12.068130999999999
20
13.868761900000003
10
16.3957519
20
41.192284700000002
10
-2.8641707000000007
20
44.242756800000002
0
LWPOLYLINE
5
101
100
AcDbEntity
8
0
100
AcDbPolyline
90
27
70
1
43
0.0
10
195.13582930000001
20
-10.661353199999999
10
214.39575189999999
20
-7.6108811000000021
10
206.18294250000002
20
44.242756800000002
10
186.92301990000001
20
41.192284700000002
10
191.25064080000001
20
13.868761900000006
10
176.70461650000004
20
56.113484000000007
10
158.2670043
20
49.764905000000006
10
169.94079640000001
20
15.861750699999998
10
150.32238820000001
20
54.3650448
10
132.94776100000001
20
45.512230100000004
10
151.14323230000002
20
9.8016068999999995
10
130.95660279999998
20
40.886290500000008
10
114.60252670000001
20
30.265829400000005
10
119.2319586
20
23.137129399999999
10
104.13588840000003
20
13.333626900000002
10
123.47057409999999
20
-16.439178299999998
10
138.56664430000001
20
-6.6356758000000005
10
141.81925810000001
20
-11.644261800000002
10
107.96497770000002
20
-24.6397026
10
114.59478480000001
20
-41.910940500000002
10
149.60405080000001
20
-28.472142300000005
10
143.80617900000001
20
-13.368170000000001
10
159.55015209999999
20
-3.1439144000000008
10
157.9454738
20
-0.67292649999999998
10
172.9939775
20
6.9946690999999994
10
175.35933230000001
20
0.12517980000000001
10
192.49300600000001
20
6.0247767999999997
0
LWPOLYLINE
5
102
100
AcDbEntity
8
0
100
AcDbPolyline
90
4
70
1
43
0.0
10
-7.9516534999999999
20
-5.7772144000000001
10
5.7772143999999992
20
-7.9516534999999999
10
7.9516534999999999
20
5.7772143999999992
10
-5.7772143999999992
20
7.9516534999999999
0
LWPOLYLINE
5
103
100
AcDbEntity
8
0
100
AcDbPolyline
90
4
70
1
43
0.0
10
-5.2922676000000006
20
11.013487400000002
10
8.4366003000000021
20
8.8390483000000017
10
10.611039399999999
20
22.567916199999999
10
-3.1178284999999994
20
24.7423553
0
LWPOLYLINE
5
104
100
AcDbEntity
8
0
100
AcDbPolyline
90
4
70
1
43
0.0
10
-2.6328817000000004
20
27.804189200000003
10
11.095986199999999
20
25.629750100000006
10
13.270425299999999
20
39.358618
10
-0.4584425999999997
20
41.533057100000008
0
LWPOLYLINE
5
105
100
AcDbEntity
8
0
100
AcDbPolyline
90
4
70
1
43
0.0
10
12.918086000000002
20
7.7368607000000011
10
26.0607942
20
3.2114632999999997
10
30.586191600000006
20
16.3541715
10
17.443483399999998
20
20.879568900000002
0
LWPOLYLINE
5
106
100
AcDbEntity
8
0
100
AcDbPolyline
90
4
70
1
43
0.0
10
18.452744600000003
20
23.810676500000003
10
31.5954528
20
19.285279100000004
10
36.120850200000007
20
32.427987300000005
10
22.978142000000005
20
36.953384700000001
0
LWPOLYLINE
5
107
100
AcDbEntity
8
0
100
AcDbPolyline
90
4
70
1
43
0.0
10
23.987403199999999
20
39.884492299999998
10
37.130111399999997
20
35.359094900000002
10
41.655508800000007
20
48.501803100000004
10
28.512800600000002
20
53.027200500000006
0
LWPOLYLINE
5
108
100
AcDbEntity
8
0
100
AcDbPolyline
90
4
70
1
43
0.0
10
32.700878799999998
20
8.3653438999999992
10
45.085869500000008
20
2.0548760000000001
10
51.396337400000007
20
14.439866700000001
10
39.011346699999997
20
20.750334600000002
0
LWPOLYLINE
5
109
100
AcDbEntity
8
0
100
AcDbPolyline
90
4
70
1
43
0.0
10
40.418717299999997
20
23.5124548
10
52.803708
20
17.201986899999998
10
59.114175899999999
20
29.586977600000001
10
46.729185200000003
20
35.897445500000003
0
LWPOLYLINE
5
110
100
AcDbEntity
8
0
100
AcDbPolyline
90
4
70
1
43
0.0
10
48.136555799999996
20
38.659565700000002
10
60.521546499999999
20
32.34909780000001
10
66.832014399999991
20
44.734088499999999
10
54.447023700000017
20
51.044556400000012
0
LWPOLYLINE
5
111
100
AcDbEntity
8
0
100
AcDbPolyline
90
4
70
1
43
0.0
10
47.369567100000005
20
-2.7399613999999999
10
59.027087999999999
20
-10.310443899999999
10
66.597570499999989
20
1.347077000000001
10
54.940049600000009
20
8.9175594999999994
0
LWPOLYLINE
5
112
100
AcDbEntity
8
0
100
AcDbPolyline
90
4
70
1
43
0.0
10
56.62843070000001
20
11.5174383
10
68.28595159999999
20
3.9469558000000005
10
75.856434100000001
20
15.604476700000001
10
64.198913199999993
20
23.174959200000004
0
LWPOLYLINE
5
113
100
AcDbEntity
8
0
100
AcDbPolyline
90
4
70
1
43
0.0
10
65.887294299999994
20
25.774837999999999
10
77.544815200000002
20
18.204355499999998
10
85.115297700000013
20
29.8618764
10
73.457776799999991
20
37.432358899999997
0
LWPOLYLINE
5
114
100
AcDbEntity
8
0
100
AcDbPolyline
90
4
70
1
43
0.0
10
67.095068999999995
20
-5.4147641999999996
10
78.752589900000004
20
-12.985246699999999
10
86.323072400000015
20
-1.3277257999999992
10
74.665551500000021
20
6.242756700000001
0
LWPOLYLINE
5
115
100
AcDbEntity
8
0
100
AcDbPolyline
90
4
70
1
43
0.0
10
76.353932599999993
20
8.8426355000000001
10
88.011453500000002
20
1.2721530000000003
10
95.581936000000013
20
12.929673900000003
10
83.92441509999999
20
20.500156399999998
0
LWPOLYLINE
5
116
100
AcDbEntity
8
0
100
AcDbPolyline
90
4
70
1
43
0.0
10
57.152992500000011
20
-27.328337600000001
10
70.129760400000009
20
-32.309652100000001
10
75.111074900000006
20
-19.332884199999999
10
62.134307
20
-14.351569699999999
0
LWPOLYLINE
5
117
100
AcDbEntity
8
0
100
AcDbPolyline
90
4
70
1
43
0.0
10
73.957440199999994
20
-33.778960699999999
10
86.934208099999992
20
-38.760275200000002
10
91.915522600000003
20
-25.783507300000004
10
78.938754700000004
20
-20.8021928
0
LWPOLYLINE
5
118
100
AcDbEntity
8
0
100
AcDbPolyline
90
4
70
1
43
0.0
10
197.54155740000002
20
-7.9516534999999999
10
211.2704253
20
-5.7772144000000001
10
209.0959862
20
7.951653499999999
10
195.36711830000002
20
5.7772144000000001
0
LWPOLYLINE
5
119
100
AcDbEntity
8
0
100
AcDbPolyline
90
4
70
1
43
0.0
10
194.8821715
20
8.8390483000000017
10
208.61103940000004
20
11.013487400000002
10
206.43660030000004
20
24.7423553
10
192.7077324
20
22.567916199999999
0
LWPOLYLINE
5
120
100
AcDbEntity
8
0
100
AcDbPolyline
90
4
70
1
43
0.0
10
192.22278560000001
20
25.629750100000006
10
205.95165350000002
20
27.804189200000003
10
203.77721440000002
20
41.533057100000008
10
190.04834650000004
20
39.358618
0
LWPOLYLINE
5
121
100
AcDbEntity
8
0
100
AcDbPolyline
90
4
70
1
43
0.0
10
177.2579776
20
3.2114632999999997
10
190.40068579999999
20
7.7368607000000011
10
185.87528840000002
20
20.879568900000002
10
172.7325802
20
16.3541715
0
LWPOLYLINE
5
122
100
AcDbEntity
8
0
100
AcDbPolyline
90
4
70
1
43
0.0
10
171.723319
20
19.285279100000004
10
184.86602720000002
20
23.810676500000003
10
180.34062980000002
20
36.953384700000001
10
167.1979216
20
32.427987300000005
0
LWPOLYLINE
5
123
100
AcDbEntity
8
0
100
AcDbPolyline
90
4
70
1
43
0.0
10
166.1886604
20
35.359094900000002
10
179.33136860000002
20
39.884492299999998
10
174.80597119999999
20
53.027200500000006
10
161.66326300000003
20
48.501803100000004
0
LWPOLYLINE
5
124
100
AcDbEntity
8
0
100
AcDbPolyline
90
4
70
1
43
0.0
10
158.23290230000001
20
2.0548760000000001
10
170.61789299999998
20
8.3653438999999992
10
164.30742509999999
20
20.750334600000002
10
151.92243440000001
20
14.4398667
0
LWPOLYLINE
5
125
100
AcDbEntity
8
0
100
AcDbPolyline
90
4
70
1
43
0.0
10
150.51506380000001
20
17.201986899999998
10
162.90005449999998
20
23.5124548
10
156.58958659999999
20
35.897445500000003
10
144.20459590000002
20
29.586977600000001
0
LWPOLYLINE
5
126
100
AcDbEntity
8
0
100
AcDbPolyline
90
4
70
1
43
0.0
10
142.79722530000001
20
32.34909780000001
10
155.18221599999998
20
38.659565700000002
10
148.87174809999999
20
51.044556400000012
10
136.48675740000002
20
44.734088499999999
0
LWPOLYLINE
5
127
100
AcDbEntity
8
0
100
AcDbPolyline
90
4
70
1
43
0.0
10
144.29168380000002
20
-10.310443899999999
10
155.9492047
20
-2.7399613999999994
10
148.37872219999997
20
8.9175595000000012
10
136.72120129999999
20
1.3470769999999999
0
LWPOLYLINE
5
128
100
AcDbEntity
8
0
100
AcDbPolyline
90
4
70
1
43
0.0
10
135.03282019999997
20
3.9469558
10
146.69034109999998
20
11.5174383
10
139.11985859999999
20
23.174959200000004
10
127.46233770000002
20
15.604476700000001
0
LWPOLYLINE
5
129
100
AcDbEntity
8
0
100
AcDbPolyline
90
4
70
1
43
0.0
10
125.77395660000001
20
18.204355499999998
10
137.4314775
20
25.774837999999999
10
129.860995
20
37.432358899999997
10
118.20347409999999
20
29.8618764
0
LWPOLYLINE
5
130
100
AcDbEntity
8
0
100
AcDbPolyline
90
4
70
1
43
0.0
10
124.56618190000002
20
-12.985246699999999
10
136.22370280000001
20
-5.4147641999999996
10
128.65322029999999
20
6.242756700000001
10
116.99569940000001
20
-1.3277258000000003
0
LWPOLYLINE
5
131
100
AcDbEntity
8
0
100
AcDbPolyline
90
4
70
1
43
0.0
10
115.30731830000001
20
1.2721530000000001
10
126.9648392
20
8.8426355000000001
10
119.39435670000002
20
20.500156399999998
10
107.73683579999999
20
12.929673900000003
0
LWPOLYLINE
5
132
100
AcDbEntity
8
0
100
AcDbPolyline
90
4
70
1
43
0.0
10
133.18901140000003
20
-32.309652100000001
10
146.1657793
20
-27.328337600000001
10
141.1844648
20
-14.351569699999999
10
128.2076969
20
-19.332884199999999
0
LWPOLYLINE
5
133
100
AcDbEntity
8
0
100
AcDbPolyline
90
4
70
1
43
0.0
10
116.38456370000002
20
-38.760275200000002
10
129.3613316
20
-33.778960699999999
10
124.3800171
20
-20.8021928
10
111.4032492
20
-25.783507300000004
0
CIRCLE
5
134
100
AcDbEntity
8
0
100
AcDbCircle
10
0
20
0
30
0
40
1
210
0
220
0
230
1
0
CIRCLE
5
135
100
AcDbEntity
8
0
100
AcDbCircle
10
2.6593859000000002
20
16.790701800000001
30
0
40
1
210
0
220
0
230
1
0
CIRCLE
5
136
100
AcDbEntity
8
0
100
AcDbCircle
10
5.3187718000000004
20
33.581403600000002
30
0
40
1
210
0
220
0
230
1
0
CIRCLE
5
137
100
AcDbEntity
8
0
100
AcDbCircle
10
21.752138800000004
20
12.0455161
30
0
40
1
210
0
220
0
230
1
0
CIRCLE
5
138
100
AcDbEntity
8
0
100
AcDbCircle
10
27.286797400000001
20
28.119331899999995
30
0
40
1
210
0
220
0
230
1
0
CIRCLE
5
139
100
AcDbEntity
8
0
100
AcDbCircle
10
32.821455999999998
20
44.193147700000004
30
0
40
1
210
0
220
0
230
1
0
CIRCLE
5
140
100
AcDbEntity
8
0
100
AcDbCircle
10
42.048608100000003
20
11.402605300000001
30
0
40
1
210
0
220
0
230
1
0
CIRCLE
5
141
100
AcDbEntity
8
0
100
AcDbCircle
10
49.766446600000009
20
26.549716200000006
30
0
40
1
210
0
220
0
230
1
0
CIRCLE
5
142
100
AcDbEntity
8
0
100
AcDbCircle
10
57.484285100000001
20
41.6968271
30
0
40
1
210
0
220
0
230
1
0
CIRCLE
5
143
100
AcDbEntity
8
0
100
AcDbCircle
10
56.983568799999993
20
-0.69644220000000012
30
0
40
1
210
0
220
0
230
1
0
CIRCLE
5
144
100
AcDbEntity
8
0
100
AcDbCircle
10
66.242432399999998
20
13.560957500000001
30
0
40
1
210
0
220
0
230
1
0
CIRCLE
5
145
100
AcDbEntity
8
0
100
AcDbCircle
10
75.501295999999996
20
27.818357200000001
30
0
40
1
210
0
220
0
230
1
0
CIRCLE
5
146
100
AcDbEntity
8
0
100
AcDbCircle
10
76.709070700000012
20
-3.371245
30
0
40
1
210
0
220
0
230
1
0
CIRCLE
5
147
100
AcDbEntity
8
0
100
AcDbCircle
10
85.967934299999996
20
10.886154699999999
30
0
40
1
210
0
220
0
230
1
0
CIRCLE
5
148
100
AcDbEntity
8
0
100
AcDbCircle
10
66.132033700000008
20
-23.330610900000003
30
0
40
1
210
0
220
0
230
1
0
CIRCLE
5
149
100
AcDbEntity
8
0
100
AcDbCircle
10
82.936481400000005
20
-29.781234000000005
30
0
40
1
210
0
220
0
230
1
0
CIRCLE
5
150
100
AcDbEntity
8
0
100
AcDbCircle
10
203.31877180000004
20
0
30
0
40
1
210
0
220
0
230
1
0
CIRCLE
5
151
100
AcDbEntity
8
0
100
AcDbCircle
10
200.65938590000002
20
16.790701800000001
30
0
40
1
210
0
220
0
230
1
0
CIRCLE
5
152
100
AcDbEntity
8
0
100
AcDbCircle
10
198
20
33.581403600000002
30
0
40
1
210
0
220
0
230
1
0
CIRCLE
5
153
100
AcDbEntity
8
0
100
AcDbCircle
10
181.56663300000002
20
12.0455161
30
0
40
1
210
0
220
0
230
1
0
CIRCLE
5
154
100
AcDbEntity
8
0
100
AcDbCircle
10
176.0319744
20
28.119331899999995
30
0
40
1
210
0
220
0
230
1
0
CIRCLE
5
155
100
AcDbEntity
8
0
100
AcDbCircle
10
170.4973158
20
44.193147700000004
30
0
40
1
210
0
220
0
230
1
0
CIRCLE
5
156
100
AcDbEntity
8
0
100
AcDbCircle
10
161.27016370000001
20
11.402605300000001
30
0
40
1
210
0
220
0
230
1
0
CIRCLE
5
157
100
AcDbEntity
8
0
100
AcDbCircle
10
153.55232519999998
20
26.549716200000006
30
0
40
1
210
0
220
0
230
1
0
CIRCLE
5
158
100
AcDbEntity
8
0
100
AcDbCircle
10
145.83448669999999
20
41.6968271
30
0
40
1
210
0
220
0
230
1
0
CIRCLE
5
159
100
AcDbEntity
8
0
100
AcDbCircle
10
146.33520300000001
20
-0.69644220000000012
30
0
40
1
210
0
220
0
230
1
0
CIRCLE
5
160
100
AcDbEntity
8
0
100
AcDbCircle
10
137.07633939999999
20
13.560957500000001
30
0
40
1
210
0
220
0
230
1
0
CIRCLE
5
161
100
AcDbEntity
8
0
100
AcDbCircle
10
127.81747580000001
20
27.818357200000001
30
0
40
1
210
0
220
0
230
1
0
CIRCLE
5
162
100
AcDbEntity
8
0
100
AcDbCircle
10
126.60970110000001
20
-3.371245
30
0
40
1
210
0
220
0
230
1
0
CIRCLE
5
163
100
AcDbEntity
8
0
100
AcDbCircle
10
117.35083750000001
20
10.886154699999999
30
0
40
1
210
0
220
0
230
1
0
CIRCLE
5
164
100
AcDbEntity
8
0
100
AcDbCircle
10
137.18673810000001
20
-23.330610900000003
30
0
40
1
210
0
220
0
230
1
0
CIRCLE
5
165
100
AcDbEntity
8
0
100
AcDbCircle
10
120.38229040000003
20
-29.781234000000005
30
0
40
1
210
0
220
0
230
1
0
LINE
5
166
100
AcDbEntity
8
0
100
AcDbLine
10
66.132033700000008
20
-23.330610900000003
30
0
11
82.936481400000005
21
-29.781234000000005
31
0
6
DASHED
0
LINE
5
167
100
AcDbEntity
8
0
100
AcDbLine
10
120.38229040000003
20
-29.781234000000005
30
0
11
137.18673810000001
21
-23.330610900000003
31
0
6
DASHED
0
CIRCLE
5
168
100
AcDbEntity
8
0
100
AcDbCircle
10
74.534257550000007
20
-26.555922450000004
30
0
40
1
210
0
220
0
230
1
0
CIRCLE
5
169
100
AcDbEntity
8
0
100
AcDbCircle
10
128.78451425000003
20
-26.555922450000004
30
0
40
1
210
0
220
0
230
1
0
ENDSEC
0
SECTION
2
OBJECTS
0
DICTIONARY
5
C
100
AcDbDictionary
3
ACAD_GROUP
350
D
3
ACAD_MLINESTYLE
350
17
0
DICTIONARY
5
D
100
AcDbDictionary
0
DICTIONARY
5
1A
330
C
100
AcDbDictionary
0
DICTIONARY
5
17
100
AcDbDictionary
0
ENDSEC
0
EOF
